<svg width="100" height="100" viewBox="0 0 100 100" fill="none" xmlns="http://www.w3.org/2000/svg">
<path d="M73.789 19.5507C65.0195 16.9531 62.2656 21.8749 50 21.8749C37.7344 21.8749 34.9804 16.9335 26.2109 19.5507C17.4414 22.1484 13.0664 31.3476 8.92576 48.6132C4.78513 65.8984 5.54685 78.3789 10.4297 80.7031C15.3125 83.0273 20.8203 77.6953 26.0742 71.1132C30.332 65.957 32.4609 65.6249 50 65.6249C67.5195 65.6249 69.3359 65.7617 73.9258 71.1132C79.1797 77.6953 84.6875 83.0273 89.5703 80.7031C94.4531 78.3789 95.2148 65.8984 91.0742 48.6132C86.9336 31.3476 82.539 22.1679 73.789 19.5507ZM25.039 51.5039C20.8008 51.5039 17.3633 48.0468 17.3633 43.7695C17.3633 39.5117 20.8008 36.0351 25.039 36.0351C29.2773 36.0351 32.7148 39.5117 32.7148 43.7695C32.7148 48.0273 29.2773 51.5039 25.039 51.5039ZM60.4883 47.5781C58.4179 47.5781 56.7187 45.8789 56.7187 43.789C56.7187 41.6992 58.4179 39.9999 60.4883 39.9999C62.5781 39.9999 64.2773 41.6992 64.2773 43.789C64.2578 45.8789 62.5781 47.5781 60.4883 47.5781ZM68.7304 55.8593C66.6601 55.8593 64.9609 54.1601 64.9609 52.0703C64.9609 49.9609 66.6601 48.2812 68.7304 48.2812C70.8203 48.2812 72.5195 49.9804 72.5195 52.0703C72.5195 54.1796 70.8203 55.8593 68.7304 55.8593ZM68.7304 39.2773C66.6601 39.2773 64.9609 37.5781 64.9609 35.4882C64.9609 33.3984 66.6601 31.6992 68.7304 31.6992C70.8203 31.6992 72.5195 33.3984 72.5195 35.4882C72.5195 37.5781 70.8203 39.2773 68.7304 39.2773ZM76.9922 47.5781C74.9023 47.5781 73.2226 45.8789 73.2226 43.789C73.2226 41.6992 74.9218 39.9999 76.9922 39.9999C79.0625 39.9999 80.7617 41.6992 80.7617 43.789C80.7617 45.8789 79.082 47.5781 76.9922 47.5781Z" fill="#CAF5FF"/>
</svg>
